# AST/ASF file generated using VICON BodyLanguage
# -----------------------------------------------
:version 1.10
:name VICON
:units
  mass 1.0
  length 0.45
  angle deg
:documentation
   .ast/.asf automatically generated from VICON data using
   VICON BodyBuilder and BodyLanguage model FoxedUp or BRILLIANT.MOD
:root
   order TX TY TZ RX RY RZ
   axis XYZ
   position 0 0 0  
   orientation 0 0 0 
:bonedata
  begin
     id 1 
     name lhipjoint
     direction 0.541323 -0.757556 0.364798 
     length 2.47576 
     axis 0 0 0  XYZ
  end
  begin
     id 2 
     name lfemur
     direction 0.34202 -0.939693 0  
     length 7.46493  
     axis 0 0 20  XYZ
    dof rx ry rz
    limits (-160.0 20.0)
           (-70.0 70.0)
           (-60.0 70.0)
  end
  begin
     id 3 
     name ltibia
     direction 0.34202 -0.939693 0   
     length 7.73805   
     axis 0 0 20   XYZ
    dof rx
    limits (-10.0 170.0)
  end
  begin
     id 4 
     name lfoot
     direction 0.107174 -0.294458 0.949636   
     length 2.25864   
     axis -90 7.62852e-016 20   XYZ
    dof rx rz
    limits (-45.0 90.0)
           (-70.0 20.0)
  end
  begin
     id 5 
     name ltoes
     direction 1.53606e-011 -4.21934e-011 1   
     length 1.12451   
     axis -90 7.62852e-016 20   XYZ
    dof rx
    limits (-90.0 20.0)
  end
  begin
     id 6 
     name rhipjoint
     direction -0.524745 -0.766967 0.36933   
     length 2.44538  
     axis 0 0 0  XYZ 
  end
  begin
     id 7 
     name rfemur
     direction -0.34202 -0.939693 0   
     length 7.61604   
     axis 0 0 -20   XYZ
    dof rx ry rz
    limits (-160.0 20.0)
           (-70.0 70.0)
           (-70.0 60.0)
  end
  begin
     id 8 
     name rtibia
     direction -0.34202 -0.939693 0   
     length 7.61056   
     axis 0 0 -20   XYZ
    dof rx
    limits (-10.0 170.0)
 end
 begin
     id 9 
     name rfoot
     direction -0.12616 -0.346623 0.929482   
     length 2.46372  
     axis -90 -7.62852e-016 -20   XYZ
    dof rx rz
    limits (-45.0 90.0)
           (-20.0 70.0)
  end
  begin
     id 10 
     name rtoes
     direction -1.53531e-011 -4.22004e-011 1   
     length 1.21611   
     axis -90 -7.62852e-016 -20   XYZ
    dof rx
    limits (-90.0 20.0)
  end
  begin
     id 11 
     name lowerback
     direction -0.000778023 0.997293 -0.0735223   
     length 2.06139   
     axis 0 0 0   XYZ
    dof rx ry rz
    limits (-20.0 45.0)
           (-30.0 30.0)
           (-30.0 30.0)
  end
  begin
     id 12 
     name upperback
     direction 0.0222598 0.999722 -0.0078355   
     length 2.06383   
     axis 0 0 0   XYZ
    dof rx ry rz
    limits (-20.0 45.0)
           (-30.0 30.0)
           (-30.0 30.0)
  end
  begin
     id 13 
     name thorax
     direction 0.0219654 0.999405 0.0265994   
     length 2.07163   
     axis 0 0 0   XYZ
    dof rx ry rz
    limits (-20.0 45.0)
           (-30.0 30.0)
           (-30.0 30.0)
  end
  begin
     id 14 
     name lowerneck
     direction 0.0213282 0.988147 0.15202   
     length 1.75969   
     axis 0 0 0   XYZ
    dof rx ry rz
    limits (-20.0 45.0)
           (-30.0 30.0)
           (-30.0 30.0)
  end
  begin
     id 15 
     name upperneck
     direction -0.0546456 0.982624 -0.177379   
     length 1.79244   
     axis 0 0 0   XYZ
    dof rx ry rz
    limits (-20.0 45.0)
           (-30.0 30.0)
           (-30.0 30.0)
  end
  begin
     id 16
     name head
     direction -0.0199987 0.996855 -0.076686  
     length 1.80555  
     axis 0 0 0   XYZ
    dof rx ry rz
    limits (-20.0 45.0)
           (-30.0 30.0)
           (-30.0 30.0)
  end
  begin
     id 17 
     name lclavicle
     direction 0.929565 0.363219 -0.063096  
     length 3.55722  
     axis 0 0 0   XYZ
    dof ry rz
    limits (-20.0 10.0)
           (0.0 20.0)
  end
  begin
     id 18 
     name lhumerus
     direction 1 -4.48993e-011 -2.36203e-027   
     length 4.92785   
     axis 180 -30 -90   XYZ
    dof rx ry rz
    limits (-60.0 90.0)
           (-90.0 90.0)
           (-90.0 90.0)
  end
  begin
     id 19
     name lradius
     direction 1 -4.48947e-011 2.02997e-027   
     length 3.44052   
     axis 180 -30 -90   XYZ
    dof rx
    limits (-10.0 170.0)
  end
  begin
     id 20
     name lwrist
     direction 1 -4.48962e-011 1.45991e-027   
     length 1.72026   
     axis 1.49639e-024 90 90   XYZ
    dof ry
    limits (-180.0 0.0)
 end
  begin
     id 21 
     name lhand
     direction 1 -4.48984e-011 2.91906e-027   
     length 0.654326   
     axis -1.863e-015 90 90   XYZ
    dof rx rz
    limits (-90.0 90.0)
           (-45.0 45.0)
  end
  begin
     id 22 
     name lfingers
     direction 1 -4.48961e-011 5.83968e-027   
     length 0.527534   
     axis -3.72598e-015 90 90   XYZ
    dof rx
    limits (0.0 90.0)
  end
  begin
     id 23
     name lthumb
     direction 0.707107 -6.34963e-011 0.707107   
     length 0.757437   
     axis -90 45 -6.68868e-015   XYZ
    dof rx rz
    limits (-45.0 45.0)
           (-45.0 45.0)
  end
  begin
     id 24 
     name rclavicle
     direction -0.902944 0.422599 -0.0781198   
     length 3.54432  
     axis 0 0 0   XYZ 
    dof ry rz
    limits (-10.0 20.0)
           (-20.0 0.0)
  end
  begin
     id 25 
     name rhumerus
     direction -1 -4.48953e-011 -4.75835e-028  
     length 5.09181   
     axis 180 30 90   XYZ
    dof rx ry rz
    limits (-90.0 60.0)
           (-90.0 90.0)
           (-90.0 90.0)
  end
  begin
     id 26 
     name rradius
     direction -1 -4.48986e-011 -3.25889e-027   
     length 3.49865   
     axis 180 30 90   XYZ
    dof rx
    limits (-10.0 170.0)
  end
  begin
     id 27 
     name rwrist
     direction -1 -4.48963e-011 1.45989e-027   
     length 1.74933   
     axis 1.49639e-024 -90 -90   XYZ
    dof ry
    limits (-180.0 0.0)
  end
  begin
     id 28
     name rhand
     direction -1 -4.49003e-011 2.91844e-027   
     length 0.66641   
     axis -1.863e-015 -90 -90   XYZ
    dof rx rz
    limits (-90.0 90.0)
           (-45.0 45.0)
  end
  begin
     id 29
     name rfingers
     direction -1 -4.48973e-011 5.83886e-027   
     length 0.537277   
     axis -3.72598e-015 -90 -90   XYZ
    dof rx
    limits (0.0 90.0)
  end
  begin
     id 30
     name rthumb
     direction -0.707107 -6.34976e-011 0.707107   
     length 0.771425   
     axis -90 -45 6.68868e-015   XYZ
    dof rx rz
    limits (-45.0 45.0)
           (-45.0 45.0)
  end
:hierarchy
  begin
    root lhipjoint rhipjoint lowerback
    lhipjoint lfemur
    lfemur ltibia
    ltibia lfoot
    lfoot ltoes
    rhipjoint rfemur
    rfemur rtibia
    rtibia rfoot
    rfoot rtoes
    lowerback upperback
    upperback thorax
    thorax lowerneck lclavicle rclavicle
    lowerneck upperneck
    upperneck head
    lclavicle lhumerus
    lhumerus lradius
    lradius lwrist
    lwrist lhand lthumb
    lhand lfingers
    rclavicle rhumerus
    rhumerus rradius
    rradius rwrist
    rwrist rhand rthumb
    rhand rfingers
  end

#!OML:ASF H:\LiuWeirdWalks\Patient Classification 1\Patient 1\Session 1\male.ASF
:FULLY-SPECIFIED
:DEGREES
76
root 0.139362 17.9225 -29.7552 2.87424 2.6783 -0.856801
lowerback 1.28214 0.419516 -1.27789
upperback -2.66769 0.574134 1.67233
thorax -3.49274 0.346167 2.41439
lowerneck -18.8091 -2.6783 1.28731
upperneck 22.8199 -3.34504 -3.11078
head 10.3295 -1.80619 -1.79712
rclavicle -1.78906e-015 7.55382e-015
rhumerus -38.4465 -12.7159 -73.0353
rradius 28.7304
rwrist -7.89185
rhand -19.342 1.72947
rfingers 7.12502
rthumb 6.97504 -28.1356
lclavicle -1.78906e-015 7.55382e-015
lhumerus -38.3479 2.2154 80.5979
lradius 28.3889
lwrist 6.28319
lhand -12.8112 -0.746795
lfingers 7.12502
lthumb 13.2752 28.8104
rfemur -9.43321 -0.829642 19.8755
rtibia 30.7278
rfoot -15.032 -23.339
rtoes -2.67769
lfemur -6.83151 -1.37625 -19.2481
ltibia 25.3726
lfoot -12.4817 17.0412
ltoes -7.4735
77
root 0.14127 17.9222 -29.7555 2.86846 2.66498 -0.841158
lowerback 1.27338 0.424718 -1.28065
upperback -2.73598 0.581224 1.66005
thorax -3.55877 0.350872 2.40298
lowerneck -18.4575 -2.72048 1.22399
upperneck 22.7126 -3.40108 -3.043
head 10.2255 -1.82924 -1.7603
rclavicle -1.26725e-015 9.93923e-015
rhumerus -38.66 -12.7636 -72.9957
rradius 28.7085
rwrist -7.8144
rhand -19.4415 1.75231
rfingers 7.12502
rthumb 6.87894 -28.1159
lclavicle -1.26725e-015 9.93923e-015
lhumerus -38.5104 2.08551 80.6325
lradius 28.4985
lwrist 6.35142
lhand -12.8536 -0.691955
lfingers 7.12502
lthumb 13.2343 28.8679
rfemur -9.44199 -0.818635 19.8468
rtibia 30.7564
rfoot -15.0719 -23.3216
rtoes -2.60182
lfemur -6.80666 -1.35803 -19.2704
ltibia 25.334
lfoot -12.4629 17.0313
ltoes -7.4942
78
root 0.14308 17.922 -29.7561 2.86439 2.65324 -0.834607
lowerback 1.27185 0.420026 -1.28192
upperback -2.72381 0.575024 1.66657
thorax -3.54507 0.347665 2.41071
lowerneck -18.4333 -2.74041 1.17299
upperneck 22.6877 -3.42201 -3.01107
head 10.2132 -1.83952 -1.74236
rclavicle -6.85807e-015 -1.31198e-014
rhumerus -38.6745 -12.8314 -72.9829
rradius 28.6632
rwrist -7.74291
rhand -19.5307 1.7365
rfingers 7.12502
rthumb 6.79286 -28.1345
lclavicle -6.85807e-015 -1.31198e-014
lhumerus -38.4983 2.04359 80.677
lradius 28.5884
lwrist 6.39919
lhand -12.9051 -0.648404
lfingers 7.12502
lthumb 13.1847 28.9147
rfemur -9.45326 -0.798444 19.8297
rtibia 30.7836
rfoot -15.1175 -23.3101
rtoes -2.50315
lfemur -6.78699 -1.3501 -19.2818
ltibia 25.2967
lfoot -12.4396 17.0276
ltoes -7.52832
79
root 0.144728 17.9219 -29.7569 2.86204 2.64131 -0.839098
lowerback 1.27626 0.410729 -1.27499
upperback -2.71256 0.563148 1.68115
thorax -3.5354 0.341573 2.4224
lowerneck -18.4261 -2.75584 1.11317
upperneck 22.6868 -3.43393 -2.97926
head 10.2132 -1.84634 -1.72268
rclavicle -2.14936e-015 -1.63003e-014
rhumerus -38.6866 -12.8791 -72.9718
rradius 28.6221
rwrist -7.70061
rhand -19.5965 1.72758
rfingers 7.12502
rthumb 6.7293 -28.1455
lclavicle -2.14936e-015 -1.63003e-014
lhumerus -38.4945 2.023 80.7208
lradius 28.6871
lwrist 6.44706
lhand -12.9547 -0.604829
lfingers 7.12502
lthumb 13.1369 28.9614
rfemur -9.46738 -0.770625 19.8271
rtibia 30.8082
rfoot -15.1545 -23.3067
rtoes -2.40821
lfemur -6.77265 -1.34896 -19.2799
ltibia 25.2649
lfoot -12.4238 17.0259
ltoes -7.55913
80
root 0.146384 17.9217 -29.7579 2.86299 2.62735 -0.846959
lowerback 1.28306 0.398919 -1.26533
upperback -2.70601 0.548145 1.69964
thorax -3.53179 0.334007 2.4367
lowerneck -18.4207 -2.76534 1.04776
upperneck 22.7056 -3.43653 -2.94445
head 10.2211 -1.84889 -1.70023
rclavicle 1.06847e-015 2.38542e-015
rhumerus -38.7098 -12.9027 -72.9627
rradius 28.5941
rwrist -7.69493
rhand -19.6317 1.70166
rfingers 7.12502
rthumb 6.69534 -28.1725
lclavicle 1.06847e-015 2.38542e-015
lhumerus -38.5038 2.0154 80.7636
lradius 28.7918
lwrist 6.50463
lhand -12.9971 -0.586596
lfingers 7.12502
lthumb 13.096 28.9822
rfemur -9.48616 -0.74639 19.8283
rtibia 30.8309
rfoot -15.1829 -23.3023
rtoes -2.32525
lfemur -6.76563 -1.35747 -19.2749
ltibia 25.2409
lfoot -12.4136 17.0316
ltoes -7.5827
81
root 0.148055 17.9214 -29.759 2.86665 2.61055 -0.85318
lowerback 1.26757 0.163595 -1.38736
upperback -2.69487 0.238563 1.97977
thorax -3.49802 0.186673 2.80871
lowerneck -18.5663 -2.39316 0.960143
upperneck 22.7565 -2.79803 -3.28661
head 10.2791 -1.60493 -1.72278
rclavicle 2.01269e-015 -1.47101e-014
rhumerus -38.4428 -12.0414 -72.9989
rradius 28.5201
rwrist -7.81824
rhand -19.6394 1.65989
rfingers 7.12502
rthumb 6.68789 -28.2145
lclavicle 2.01269e-015 -1.47101e-014
lhumerus -38.7182 2.93212 80.8017
lradius 28.9292
lwrist 6.44746
lhand -13.0422 -0.593482
lfingers 7.12502
lthumb 13.0525 28.9781
rfemur -9.5092 -0.730005 19.8272
rtibia 30.8536
rfoot -15.2037 -23.2916
rtoes -2.26252
lfemur -6.76433 -1.36475 -19.2721
ltibia 25.2243
lfoot -12.4134 17.0382
ltoes -7.60106
82
root 0.149708 17.9211 -29.7604 2.87302 2.59068 -0.853552
lowerback 1.26256 -0.0170209 -1.48111
upperback -2.68681 0.0007289 2.19238
thorax -3.47358 0.0733266 3.09197
lowerneck -18.6895 -2.11125 0.884499
upperneck 22.8222 -2.3129 -3.5353
head 10.3372 -1.41957 -1.73474
rclavicle 4.68386e-015 2.70347e-014
rhumerus -38.2563 -11.3803 -73.0289
rradius 28.4703
rwrist -7.94292
rhand -19.6289 1.63153
rfingers 7.12502
rthumb 6.69805 -28.2425
lclavicle 4.68386e-015 2.70347e-014
lhumerus -38.8754 3.6189 80.8381
lradius 29.0483
lwrist 6.44449
lhand -13.0795 -0.585038
lfingers 7.12502
lthumb 13.0166 28.9889
rfemur -9.53868 -0.722865 19.8191
rtibia 30.8785
rfoot -15.2118 -23.2758
rtoes -2.22966
lfemur -6.76868 -1.37327 -19.2766
ltibia 25.2136
lfoot -12.4186 17.0466
ltoes -7.59623
83
root 0.15122 17.9207 -29.7622 2.88227 2.57173 -0.850259
lowerback 1.25466 -0.187258 -1.57009
upperback -2.67643 -0.223704 2.38866
thorax -3.44352 -0.0339317 3.35512
lowerneck -18.8126 -1.84513 0.821963
upperneck 22.8824 -1.85749 -3.76667
head 10.3937 -1.24515 -1.74627
rclavicle -1.31695e-015 3.97569e-015
rhumerus -38.0844 -10.7632 -73.057
rradius 28.4252
rwrist -8.05867
rhand -19.5923 1.61799
rfingers 7.12502
rthumb 6.73342 -28.2549
lclavicle -1.31695e-015 3.97569e-015
lhumerus -39.0059 4.25876 80.8704
lradius 29.1457
lwrist 6.45874
lhand -13.118 -0.606314
lfingers 7.12502
lthumb 12.9794 28.97
rfemur -9.57405 -0.719456 19.8071
rtibia 30.9073
rfoot -15.223 -23.257
rtoes -2.19493
lfemur -6.77939 -1.37609 -19.2844
ltibia 25.2069
lfoot -12.4307 17.0483
ltoes -7.58036
84
root 0.152501 17.9203 -29.7642 2.89409 2.55444 -0.846126
lowerback 1.25197 -0.26066 -1.61169
upperback -2.66497 -0.32068 2.47391
thorax -3.42301 -0.0804245 3.47102
lowerneck -18.8763 -1.74899 0.768744
upperneck 22.9241 -1.68671 -3.83561
head 10.4261 -1.1805 -1.73983
rclavicle -5.01931e-015 -6.36111e-015
rhumerus -38.0335 -10.5359 -73.0631
rradius 28.3967
rwrist -8.1091
rhand -19.5673 1.6118
rfingers 7.12502
rthumb 6.75749 -28.2604
lclavicle -5.01931e-015 -6.36111e-015
lhumerus -39.0302 4.50339 80.9076
lradius 29.2014
lwrist 6.5319
lhand -13.146 -0.614834
lfingers 7.12502
lthumb 12.9525 28.9631
rfemur -9.61504 -0.717404 19.795
rtibia 30.9399
rfoot -15.241 -23.2381
rtoes -2.15357
lfemur -6.79672 -1.36955 -19.2918
ltibia 25.2038
lfoot -12.4446 17.0439
ltoes -7.56603
85
root 0.153628 17.9199 -29.7665 2.91192 2.53071 -0.840065
lowerback 1.2474 -0.205478 -1.59123
upperback -2.65191 -0.248168 2.41549
thorax -3.41222 -0.0459249 3.39565
lowerneck -18.8553 -1.87287 0.718651
upperneck 22.9396 -1.88434 -3.68826
head 10.4241 -1.25731 -1.70678
rclavicle 6.06293e-015 -1.51076e-014
rhumerus -38.1408 -10.8093 -73.0424
rradius 28.3958
rwrist -8.09127
rhand -19.5383 1.61189
rfingers 7.12502
rthumb 6.78548 -28.2594
lclavicle 6.06293e-015 -1.51076e-014
lhumerus -38.9219 4.23688 80.9538
lradius 29.2148
lwrist 6.66089
lhand -13.1665 -0.604803
lfingers 7.12502
lthumb 12.9327 28.9744
rfemur -9.66661 -0.715305 19.78
rtibia 30.9769
rfoot -15.2595 -23.2125
rtoes -2.11237
lfemur -6.8221 -1.35157 -19.3007
ltibia 25.2029
lfoot -12.4655 17.0334
ltoes -7.53984
86
root 0.154479 17.9193 -29.7689 2.93199 2.51025 -0.834727
lowerback 1.25035 -0.0602327 -1.52489
upperback -2.64177 -0.056924 2.25507
thorax -3.41647 0.0453937 3.18374
lowerneck -18.772 -2.15654 0.670534
upperneck 22.9433 -2.34857 -3.38644
head 10.4015 -1.43689 -1.65524
rclavicle 1.51573e-015 -8.34896e-015
rhumerus -38.3665 -11.4519 -72.9946
rradius 28.4103
rwrist -8.00704
rhand -19.5167 1.58935
rfingers 7.12502
rthumb 6.80641 -28.2812
lclavicle 1.51573e-015 -8.34896e-015
lhumerus -38.7262 3.60173 81.0075
lradius 29.201
lwrist 6.83081
lhand -13.1717 -0.514671
lfingers 7.12502
lthumb 12.9277 29.0649
rfemur -9.72222 -0.718996 19.7667
rtibia 31.0182
rfoot -15.289 -23.1849
rtoes -2.06234
lfemur -6.85222 -1.3202 -19.3057
ltibia 25.2045
lfoot -12.4891 17.007
ltoes -7.51328
87
root 0.155055 17.9186 -29.7712 2.95338 2.49332 -0.828415
lowerback 1.26104 0.0945245 -1.45381
upperback -2.63329 0.146743 2.08235
thorax -3.42599 0.142658 2.95606
lowerneck -18.6907 -2.46066 0.620953
upperneck 22.953 -2.84615 -3.06474
head 10.3829 -1.62963 -1.60112
rclavicle 9.44227e-016 2.06736e-014
rhumerus -38.6066 -12.1439 -72.9374
rradius 28.4226
rwrist -7.90149
rhand -19.4934 1.58343
rfingers 7.12502
rthumb 6.82889 -28.2864
lclavicle 9.44227e-016 2.06736e-014
lhumerus -38.5195 2.91946 81.0648
lradius 29.1833
lwrist 6.99747
lhand -13.1729 -0.389583
lfingers 7.12502
lthumb 12.9265 29.19
rfemur -9.78027 -0.728095 19.7532
rtibia 31.064
rfoot -15.3319 -23.1547
rtoes -2.00935
lfemur -6.88557 -1.27694 -19.3085
ltibia 25.2085
lfoot -12.5158 16.9658
ltoes -7.49256
88
root 0.15542 17.9176 -29.7737 2.97659 2.47362 -0.820447
lowerback 1.28829 0.305751 -1.35146
upperback -2.63014 0.424743 1.84396
thorax -3.45203 0.275395 2.63971
lowerneck -18.5832 -2.8578 0.576089
upperneck 22.9729 -3.50147 -2.64599
head 10.3639 -1.88247 -1.53499
rclavicle -6.90777e-015 1.39149e-014
rhumerus -38.9274 -13.0559 -72.8628
rradius 28.4502
rwrist -7.75938
rhand -19.4545 1.57927
rfingers 7.12502
rthumb 6.86647 -28.2894
lclavicle -6.90777e-015 1.39149e-014
lhumerus -38.2626 2.00168 81.1255
lradius 29.1497
lwrist 7.19944
lhand -13.1677 -0.259972
lfingers 7.12502
lthumb 12.9315 29.3193
rfemur -9.84376 -0.746581 19.7372
rtibia 31.1148
rfoot -15.3824 -23.1131
rtoes -1.95186
lfemur -6.92227 -1.22911 -19.3115
ltibia 25.2143
lfoot -12.541 16.9223
ltoes -7.47391
89
root 0.155706 17.9163 -29.776 3.00017 2.45559 -0.809953
lowerback 1.30252 0.293858 -1.37784
upperback -2.62527 0.408517 1.86318
thorax -3.45456 0.268269 2.6751
lowerneck -18.6171 -2.87696 0.51369
upperneck 23.0019 -3.51949 -2.60758
head 10.3827 -1.89143 -1.51492
rclavicle 3.37934e-015 -5.56597e-015
rhumerus -38.9615 -13.1009 -72.83
rradius 28.4263
rwrist -7.70842
rhand -19.4175 1.54926
rfingers 7.12502
rthumb 6.90211 -28.3182
lclavicle 3.37934e-015 -5.56597e-015
lhumerus -38.2057 1.99553 81.1866
lradius 29.1424
lwrist 7.27828
lhand -13.1724 -0.177717
lfingers 7.12502
lthumb 12.927 29.4019
rfemur -9.90943 -0.780733 19.7169
rtibia 31.1698
rfoot -15.4406 -23.0571
rtoes -1.89465
lfemur -6.96005 -1.17531 -19.3162
ltibia 25.223
lfoot -12.5707 16.873
ltoes -7.46699
90
root 0.155975 17.9147 -29.7784 3.02143 2.43346 -0.795288
lowerback 1.33207 0.282736 -1.40746
upperback -2.62391 0.393135 1.88154
thorax -3.46944 0.261811 2.71139
lowerneck -18.6592 -2.89906 0.449752
upperneck 23.0471 -3.54042 -2.57174
head 10.4089 -1.90212 -1.49644
rclavicle 9.28076e-015 3.18055e-015
rhumerus -39.004 -13.1374 -72.7995
rradius 28.4109
rwrist -7.67313
rhand -19.3862 1.50451
rfingers 7.12502
rthumb 6.93235 -28.362
lclavicle 9.28076e-015 3.18055e-015
lhumerus -38.1479 1.98289 81.2534
lradius 29.1253
lwrist 7.36472
lhand -13.1795 -0.0873776
lfingers 7.12502
lthumb 12.9202 29.4926
rfemur -9.97536 -0.828381 19.6896
rtibia 31.2284
rfoot -15.4951 -22.9858
rtoes -1.85103
lfemur -6.99549 -1.12927 -19.3271
ltibia 25.235
lfoot -12.5992 16.8378
ltoes -7.46419
